<svg width="206" height="22" viewBox="0 0 206 22" fill="none" xmlns="http://www.w3.org/2000/svg">
<path d="M7.81641 1.13672L17.6162 13.4561V4.91602C17.6162 3.72461 17.4453 2.91895 17.1035 2.49902C16.6348 1.93262 15.8486 1.65918 14.7451 1.67871V1.13672H21.3076V1.67871C20.4678 1.78613 19.9014 1.92773 19.6084 2.10352C19.3252 2.26953 19.1006 2.54785 18.9346 2.93848C18.7783 3.31934 18.7002 3.97852 18.7002 4.91602V21.4541H18.2021L4.76953 4.91602V17.543C4.76953 18.6855 5.02832 19.457 5.5459 19.8574C6.07324 20.2578 6.67383 20.458 7.34766 20.458H7.81641V21H0.770508V20.458C1.86426 20.4482 2.62598 20.2236 3.05566 19.7842C3.48535 19.3447 3.7002 18.5977 3.7002 17.543V3.52441L3.27539 2.99707C2.85547 2.46973 2.48438 2.12305 2.16211 1.95703C1.83984 1.79102 1.37598 1.69824 0.770508 1.67871V1.13672H7.81641ZM33.6123 0.858398C36.7764 0.741211 39.3447 1.66406 41.3174 3.62695C43.2998 5.58984 44.291 8.0459 44.291 10.9951C44.291 13.5146 43.5537 15.7314 42.0791 17.6455C40.126 20.1846 37.3672 21.4541 33.8027 21.4541C30.2285 21.4541 27.4648 20.2432 25.5117 17.8213C23.9688 15.9072 23.1973 13.6367 23.1973 11.0098C23.1973 8.06055 24.1982 5.60449 26.2002 3.6416C28.2119 1.66895 30.6826 0.741211 33.6123 0.858398ZM33.7881 1.7959C31.9717 1.7959 30.5898 2.72363 29.6426 4.5791C28.8711 6.10254 28.4854 8.29004 28.4854 11.1416C28.4854 14.5303 29.0811 17.0352 30.2725 18.6562C31.1025 19.7891 32.2646 20.3555 33.7588 20.3555C34.7646 20.3555 35.6045 20.1113 36.2783 19.623C37.1377 18.998 37.8066 18.002 38.2852 16.6348C38.7637 15.2578 39.0029 13.4658 39.0029 11.2588C39.0029 8.63184 38.7588 6.66895 38.2705 5.37012C37.7822 4.06152 37.1572 3.13867 36.3955 2.60156C35.6436 2.06445 34.7744 1.7959 33.7881 1.7959ZM64.3008 1.13672V6.5127H63.7734C63.4609 5.27246 63.1143 4.38379 62.7334 3.84668C62.3525 3.2998 61.8301 2.86523 61.166 2.54297C60.7949 2.36719 60.1455 2.2793 59.2178 2.2793H57.7383V17.6016C57.7383 18.6172 57.792 19.252 57.8994 19.5059C58.0166 19.7598 58.2363 19.9844 58.5586 20.1797C58.8906 20.3652 59.3398 20.458 59.9062 20.458H60.5654V21H50.165V20.458H50.8242C51.4004 20.458 51.8643 20.3555 52.2158 20.1504C52.4697 20.0137 52.6699 19.7793 52.8164 19.4473C52.9238 19.2129 52.9775 18.5977 52.9775 17.6016V2.2793H51.542C50.2041 2.2793 49.2324 2.5625 48.627 3.12891C47.7773 3.91992 47.2402 5.04785 47.0156 6.5127H46.459V1.13672H64.3008ZM76.3711 20.458V21H65.9854V20.458H66.6445C67.2207 20.458 67.6846 20.3555 68.0361 20.1504C68.29 20.0137 68.4854 19.7793 68.6221 19.4473C68.7295 19.2129 68.7832 18.5977 68.7832 17.6016V4.53516C68.7832 3.51953 68.7295 2.88477 68.6221 2.63086C68.5146 2.37695 68.2949 2.15723 67.9629 1.97168C67.6406 1.77637 67.2012 1.67871 66.6445 1.67871H65.9854V1.13672H76.3711V1.67871H75.7119C75.1357 1.67871 74.6719 1.78125 74.3203 1.98633C74.0664 2.12305 73.8662 2.35742 73.7197 2.68945C73.6123 2.92383 73.5586 3.53906 73.5586 4.53516V17.6016C73.5586 18.6172 73.6123 19.252 73.7197 19.5059C73.8369 19.7598 74.0566 19.9844 74.3789 20.1797C74.7109 20.3652 75.1553 20.458 75.7119 20.458H76.3711ZM91.166 0.682617L91.3271 7.30371H90.7266C90.4434 5.64355 89.7451 4.31055 88.6318 3.30469C87.5283 2.28906 86.332 1.78125 85.043 1.78125C84.0469 1.78125 83.2559 2.0498 82.6699 2.58691C82.0938 3.11426 81.8057 3.72461 81.8057 4.41797C81.8057 4.85742 81.9082 5.24805 82.1133 5.58984C82.3965 6.04883 82.8506 6.50293 83.4756 6.95215C83.9346 7.27441 84.9941 7.8457 86.6543 8.66602C88.9785 9.80859 90.5459 10.8877 91.3564 11.9033C92.1572 12.9189 92.5576 14.0811 92.5576 15.3896C92.5576 17.0498 91.9082 18.4805 90.6094 19.6816C89.3203 20.873 87.6797 21.4688 85.6875 21.4688C85.0625 21.4688 84.4717 21.4053 83.915 21.2783C83.3584 21.1514 82.6602 20.9121 81.8203 20.5605C81.3516 20.3652 80.9658 20.2676 80.6631 20.2676C80.4092 20.2676 80.1406 20.3652 79.8574 20.5605C79.5742 20.7559 79.3447 21.0537 79.1689 21.4541H78.627V13.9541H79.1689C79.5986 16.0635 80.4238 17.6748 81.6445 18.7881C82.875 19.8916 84.1982 20.4434 85.6143 20.4434C86.708 20.4434 87.5771 20.1455 88.2217 19.5498C88.876 18.9541 89.2031 18.2607 89.2031 17.4697C89.2031 17.001 89.0762 16.5469 88.8223 16.1074C88.5781 15.668 88.2021 15.2529 87.6943 14.8623C87.1865 14.4619 86.2881 13.9443 84.999 13.3096C83.1924 12.4209 81.8936 11.6641 81.1025 11.0391C80.3115 10.4141 79.7012 9.71582 79.2715 8.94434C78.8516 8.17285 78.6416 7.32324 78.6416 6.39551C78.6416 4.81348 79.2227 3.46582 80.3848 2.35254C81.5469 1.23926 83.0117 0.682617 84.7793 0.682617C85.4238 0.682617 86.0488 0.760742 86.6543 0.916992C87.1133 1.03418 87.6699 1.25391 88.3242 1.57617C88.9883 1.88867 89.4521 2.04492 89.7158 2.04492C89.9697 2.04492 90.1699 1.9668 90.3164 1.81055C90.4629 1.6543 90.5996 1.27832 90.7266 0.682617H91.166ZM112.699 1.13672V6.5127H112.172C111.859 5.27246 111.513 4.38379 111.132 3.84668C110.751 3.2998 110.229 2.86523 109.564 2.54297C109.193 2.36719 108.544 2.2793 107.616 2.2793H106.137V17.6016C106.137 18.6172 106.19 19.252 106.298 19.5059C106.415 19.7598 106.635 19.9844 106.957 20.1797C107.289 20.3652 107.738 20.458 108.305 20.458H108.964V21H98.5635V20.458H99.2227C99.7988 20.458 100.263 20.3555 100.614 20.1504C100.868 20.0137 101.068 19.7793 101.215 19.4473C101.322 19.2129 101.376 18.5977 101.376 17.6016V2.2793H99.9404C98.6025 2.2793 97.6309 2.5625 97.0254 3.12891C96.1758 3.91992 95.6387 5.04785 95.4141 6.5127H94.8574V1.13672H112.699ZM124.813 0.858398C127.978 0.741211 130.546 1.66406 132.519 3.62695C134.501 5.58984 135.492 8.0459 135.492 10.9951C135.492 13.5146 134.755 15.7314 133.28 17.6455C131.327 20.1846 128.568 21.4541 125.004 21.4541C121.43 21.4541 118.666 20.2432 116.713 17.8213C115.17 15.9072 114.398 13.6367 114.398 11.0098C114.398 8.06055 115.399 5.60449 117.401 3.6416C119.413 1.66895 121.884 0.741211 124.813 0.858398ZM124.989 1.7959C123.173 1.7959 121.791 2.72363 120.844 4.5791C120.072 6.10254 119.687 8.29004 119.687 11.1416C119.687 14.5303 120.282 17.0352 121.474 18.6562C122.304 19.7891 123.466 20.3555 124.96 20.3555C125.966 20.3555 126.806 20.1113 127.479 19.623C128.339 18.998 129.008 18.002 129.486 16.6348C129.965 15.2578 130.204 13.4658 130.204 11.2588C130.204 8.63184 129.96 6.66895 129.472 5.37012C128.983 4.06152 128.358 3.13867 127.597 2.60156C126.845 2.06445 125.976 1.7959 124.989 1.7959ZM144.545 11.9473V17.5137C144.545 18.5879 144.608 19.2666 144.735 19.5498C144.872 19.8232 145.106 20.043 145.438 20.209C145.771 20.375 146.391 20.458 147.299 20.458V21H137.133V20.458C138.051 20.458 138.671 20.375 138.993 20.209C139.325 20.0332 139.555 19.8086 139.682 19.5352C139.818 19.2617 139.887 18.5879 139.887 17.5137V4.62305C139.887 3.54883 139.818 2.875 139.682 2.60156C139.555 2.31836 139.325 2.09375 138.993 1.92773C138.661 1.76172 138.041 1.67871 137.133 1.67871V1.13672H146.361C148.764 1.13672 150.521 1.30273 151.635 1.63477C152.748 1.9668 153.656 2.58203 154.359 3.48047C155.062 4.36914 155.414 5.41406 155.414 6.61523C155.414 8.08008 154.887 9.29102 153.832 10.248C153.158 10.8535 152.216 11.3076 151.005 11.6104L155.78 18.334C156.405 19.2031 156.85 19.7451 157.113 19.96C157.514 20.2627 157.978 20.4287 158.505 20.458V21H152.25L145.849 11.9473H144.545ZM144.545 2.20605V10.9072H145.38C146.737 10.9072 147.753 10.7852 148.427 10.541C149.101 10.2871 149.628 9.83789 150.009 9.19336C150.399 8.53906 150.595 7.68945 150.595 6.64453C150.595 5.13086 150.238 4.0127 149.525 3.29004C148.822 2.56738 147.685 2.20605 146.112 2.20605H144.545ZM169.242 20.458V21H158.856V20.458H159.516C160.092 20.458 160.556 20.3555 160.907 20.1504C161.161 20.0137 161.356 19.7793 161.493 19.4473C161.601 19.2129 161.654 18.5977 161.654 17.6016V4.53516C161.654 3.51953 161.601 2.88477 161.493 2.63086C161.386 2.37695 161.166 2.15723 160.834 1.97168C160.512 1.77637 160.072 1.67871 159.516 1.67871H158.856V1.13672H169.242V1.67871H168.583C168.007 1.67871 167.543 1.78125 167.191 1.98633C166.938 2.12305 166.737 2.35742 166.591 2.68945C166.483 2.92383 166.43 3.53906 166.43 4.53516V17.6016C166.43 18.6172 166.483 19.252 166.591 19.5059C166.708 19.7598 166.928 19.9844 167.25 20.1797C167.582 20.3652 168.026 20.458 168.583 20.458H169.242ZM178.119 2.2793V10.3652H178.515C179.774 10.3652 180.688 9.96973 181.254 9.17871C181.82 8.3877 182.182 7.2207 182.338 5.67773H182.895V16.0781H182.338C182.221 14.9453 181.972 14.0176 181.591 13.2949C181.22 12.5723 180.785 12.0889 180.287 11.8447C179.789 11.5908 179.066 11.4639 178.119 11.4639V17.0596C178.119 18.1533 178.163 18.8223 178.251 19.0664C178.349 19.3105 178.524 19.5107 178.778 19.667C179.032 19.8232 179.442 19.9014 180.009 19.9014H181.195C183.051 19.9014 184.535 19.4717 185.648 18.6123C186.771 17.7529 187.577 16.4443 188.065 14.6865H188.607L187.714 21H170.546V20.458H171.205C171.781 20.458 172.245 20.3555 172.597 20.1504C172.851 20.0137 173.046 19.7793 173.183 19.4473C173.29 19.2129 173.344 18.5977 173.344 17.6016V4.53516C173.344 3.63672 173.319 3.08496 173.271 2.87988C173.173 2.53809 172.992 2.27441 172.729 2.08887C172.357 1.81543 171.85 1.67871 171.205 1.67871H170.546V1.13672H187.172V7.01074H186.615C186.332 5.5752 185.932 4.54492 185.414 3.91992C184.906 3.29492 184.184 2.83594 183.246 2.54297C182.699 2.36719 181.674 2.2793 180.17 2.2793H178.119ZM204.047 0.682617L204.208 7.30371H203.607C203.324 5.64355 202.626 4.31055 201.513 3.30469C200.409 2.28906 199.213 1.78125 197.924 1.78125C196.928 1.78125 196.137 2.0498 195.551 2.58691C194.975 3.11426 194.687 3.72461 194.687 4.41797C194.687 4.85742 194.789 5.24805 194.994 5.58984C195.277 6.04883 195.731 6.50293 196.356 6.95215C196.815 7.27441 197.875 7.8457 199.535 8.66602C201.859 9.80859 203.427 10.8877 204.237 11.9033C205.038 12.9189 205.438 14.0811 205.438 15.3896C205.438 17.0498 204.789 18.4805 203.49 19.6816C202.201 20.873 200.561 21.4688 198.568 21.4688C197.943 21.4688 197.353 21.4053 196.796 21.2783C196.239 21.1514 195.541 20.9121 194.701 20.5605C194.232 20.3652 193.847 20.2676 193.544 20.2676C193.29 20.2676 193.021 20.3652 192.738 20.5605C192.455 20.7559 192.226 21.0537 192.05 21.4541H191.508V13.9541H192.05C192.479 16.0635 193.305 17.6748 194.525 18.7881C195.756 19.8916 197.079 20.4434 198.495 20.4434C199.589 20.4434 200.458 20.1455 201.103 19.5498C201.757 18.9541 202.084 18.2607 202.084 17.4697C202.084 17.001 201.957 16.5469 201.703 16.1074C201.459 15.668 201.083 15.2529 200.575 14.8623C200.067 14.4619 199.169 13.9443 197.88 13.3096C196.073 12.4209 194.774 11.6641 193.983 11.0391C193.192 10.4141 192.582 9.71582 192.152 8.94434C191.732 8.17285 191.522 7.32324 191.522 6.39551C191.522 4.81348 192.104 3.46582 193.266 2.35254C194.428 1.23926 195.893 0.682617 197.66 0.682617C198.305 0.682617 198.93 0.760742 199.535 0.916992C199.994 1.03418 200.551 1.25391 201.205 1.57617C201.869 1.88867 202.333 2.04492 202.597 2.04492C202.851 2.04492 203.051 1.9668 203.197 1.81055C203.344 1.6543 203.48 1.27832 203.607 0.682617H204.047Z" fill="#474C59"/>
</svg>
